<?xml version="1.0" encoding="utf-8"?>
<!-- Generator: Adobe Illustrator 16.0.4, SVG Export Plug-In . SVG Version: 6.00 Build 0)  -->
<!DOCTYPE svg PUBLIC "-//W3C//DTD SVG 1.1//EN" "http://www.w3.org/Graphics/SVG/1.1/DTD/svg11.dtd">
<svg version="1.1" id="Layer_1" xmlns="http://www.w3.org/2000/svg" xmlns:xlink="http://www.w3.org/1999/xlink" x="0px" y="0px"
	 width="59.32px" height="69.405px" viewBox="0 0 59.32 69.405" enable-background="new 0 0 59.32 69.405" xml:space="preserve">
<polygon fill="#010101" points="59.32,22.705 50.889,22.705 50.9,35.119 39.604,35.119 39.604,49.567 45.221,49.567 45.221,69.405 
	14.289,69.405 14.289,49.548 19.914,49.548 19.925,35.118 8.54,35.118 8.54,22.705 0,22.705 0,0 59.32,0 "/>
<path fill="none" stroke="#FFFFFF" stroke-width="0.25" stroke-miterlimit="10" d="M47.521,68.405c0.674,0,1.25-0.522,1.25-1.239
	c0-0.712-0.576-1.234-1.25-1.234c-0.681,0-1.258,0.522-1.258,1.234C46.264,67.883,46.841,68.405,47.521,68.405z"/>
<path fill="#FFFFFF" d="M47.721,67.254c0.207-0.025,0.368-0.138,0.368-0.394c0-0.28-0.167-0.406-0.503-0.406h-0.543v1.429h0.217
	v-0.619h0.247l0.377,0.619h0.241L47.721,67.254z M47.26,67.079v-0.44h0.295c0.148,0,0.309,0.033,0.309,0.209
	c0,0.22-0.162,0.231-0.346,0.231H47.26z"/>
<polygon fill="#B3B4B7" points="25.71,30.699 27.041,29.434 17.377,29.434 17.377,32.234 11.635,32.234 10.348,33.604 
	18.771,33.604 18.771,30.699 21.529,30.699 22.921,30.699 "/>
<polygon fill="#B3B4B7" points="22.921,14.557 21.567,15.932 15.778,15.932 15.778,21.191 1.602,21.191 3.206,19.702 14.422,19.702 
	14.422,14.554 "/>
<polygon fill="#B3B4B7" points="56.609,2.978 57.966,1.489 57.966,21.192 43.854,21.192 45.129,19.703 56.609,19.703 "/>
<polygon fill="#B3B4B7" points="45.129,14.526 43.854,15.933 38.229,15.933 38.229,22.677 36.855,22.677 36.855,14.526 "/>
<polygon fill="#B3B4B7" points="36.85,56.474 36.85,56.469 36.855,56.469 38.279,55.144 38.285,55.144 38.285,63.565 21.583,63.565 
	22.954,62.172 36.85,62.172 36.85,56.474 "/>
<polygon fill="#B3B4B7" points="42.357,29.435 41.014,30.7 38.229,30.7 38.229,51.06 43.866,51.06 43.866,67.916 15.808,67.916 
	17.135,66.604 42.509,66.604 42.509,52.372 42.509,52.338 36.855,52.338 36.855,30.699 34.061,30.699 34.061,55.144 34.072,55.144 
	32.684,56.467 32.662,56.467 32.662,29.435 "/>
<polygon fill="#B3B4B7" points="48.068,23.99 49.375,22.677 49.375,33.605 41.014,33.605 42.357,32.235 48.068,32.235 48.068,23.99 
	"/>
<path id="Red" fill="#CB2026" d="M14.576,29.436l-2.94,2.799V23.99h36.432l-2.731,2.756H29.816h-15.24V29.436z M36.85,56.474v-0.005
	h-4.168l-2.865,2.808h4.341L36.85,56.474z M45.337,26.746l-2.979,2.688v2.8l2.979-2.799V26.746z M8.593,8.488h21.365h0.022h20.918
	l5.711-5.511H3.206v16.726l5.388-5.368V8.488H8.593z M50.898,8.488l-5.771,6.038v5.177l5.771-5.467V8.488z M22.921,14.557v8.12
	h7.037V8.488L22.921,14.557z M34.078,55.14h4.207l-0.001,0.002h0.003v1.181l4.222-3.95v-0.034h-5.653l-2.795,2.808h0.012
	L34.078,55.14z M22.954,56.49v5.683l2.705-2.896h4.158V26.747l-2.775,2.688V56.49H22.954z M21.583,55.144h4.127V30.699h-2.789
	v21.616h-5.787v14.289l4.448-4.603L21.583,55.144L21.583,55.144z"/>
<path id="White" fill="#FFFFFF" d="M45.129,19.703l-1.275,1.489v-5.259l1.275-1.407V19.703z M1.602,21.192l1.604-1.489V2.978h53.403
	l1.357-1.489H1.602V21.192z M29.958,22.677h-7.037v-8.12l-1.354,1.375v6.744H10.349v10.928l1.287-1.37V23.99h36.432l1.307-1.313
	H38.229h-1.373H29.958z M17.135,52.315h5.787V30.699H21.53v20.339h-5.722v16.877l1.327-1.312V52.315z M42.357,29.435L41.014,30.7
	v2.905l1.344-1.37V29.435z M36.85,56.469h0.006l1.424-1.325l0.004-0.002l0.001-0.002h-4.207l-0.007,0.004l0,0l-1.387,1.323
	l-0.002,0.002H36.85z M21.583,55.144v6.858v1.562l1.371-1.393V56.49h4.088V29.435L25.711,30.7v24.445h-4.128V55.144z"/>
</svg>
